<svg width="745" height="114" viewBox="0 0 745 114" fill="none" xmlns="http://www.w3.org/2000/svg">
<path d="M12.4843 83.8916H0L22.7303 19.4243H37.1692L59.931 83.8916H47.4467L30.202 32.6451H29.6975L12.4843 83.8916ZM12.8942 58.6146H46.9423V67.9951H12.8942V58.6146Z" fill="white"/>
<path d="M79.3432 19.4243V83.8916H67.9308V19.4243H79.3432Z" fill="white"/>
<path d="M112.138 103.03C108.04 103.03 104.519 102.474 101.577 101.362C98.6345 100.271 96.2701 98.8018 94.4836 96.9551C92.6971 95.1083 91.4571 93.0623 90.7635 90.8168L101.041 88.33C101.503 89.2744 102.176 90.2082 103.059 91.1316C103.941 92.0759 105.129 92.8524 106.621 93.461C108.134 94.0905 110.036 94.4053 112.327 94.4053C115.564 94.4053 118.244 93.6184 120.366 92.0445C122.489 90.4915 123.551 87.9313 123.551 84.3638V75.2036H122.983C122.395 76.3788 121.533 77.5855 120.398 78.8236C119.284 80.0618 117.802 81.1005 115.953 81.94C114.124 82.7794 111.823 83.1991 109.049 83.1991C105.329 83.1991 101.955 82.3282 98.9287 80.5864C95.9233 78.8236 93.5273 76.2004 91.7408 72.7169C89.9753 69.2123 89.0926 64.8263 89.0926 59.559C89.0926 54.2497 89.9753 49.7693 91.7408 46.1178C93.5273 42.4454 95.9338 39.6648 98.9603 37.7761C101.987 35.8664 105.36 34.9116 109.08 34.9116C111.917 34.9116 114.25 35.3942 116.079 36.3596C117.928 37.3039 119.4 38.4476 120.493 39.7907C121.585 41.1128 122.416 42.3614 122.983 43.5366H123.614V35.5411H134.868V84.6786C134.868 88.8127 133.881 92.2333 131.905 94.9405C129.929 97.6476 127.229 99.6727 123.803 101.016C120.377 102.359 116.489 103.03 112.138 103.03ZM112.233 74.2593C114.65 74.2593 116.709 73.6717 118.412 72.4965C120.114 71.3213 121.407 69.632 122.29 67.4285C123.172 65.2251 123.614 62.5809 123.614 59.496C123.614 56.4531 123.172 53.788 122.29 51.5006C121.428 49.2132 120.146 47.4399 118.443 46.1808C116.762 44.9007 114.692 44.2606 112.233 44.2606C109.69 44.2606 107.567 44.9216 105.864 46.2437C104.162 47.5658 102.88 49.381 102.018 51.6894C101.157 53.9769 100.726 56.5791 100.726 59.496C100.726 62.455 101.157 65.0467 102.018 67.2711C102.901 69.4746 104.194 71.1954 105.896 72.4336C107.619 73.6507 109.732 74.2593 112.233 74.2593Z" fill="white"/>
<path d="M168.002 84.836C163.147 84.836 158.954 83.8287 155.423 81.8141C151.914 79.7785 149.213 76.9035 147.321 73.189C145.43 69.4536 144.484 65.0572 144.484 59.9997C144.484 55.0261 145.43 50.6612 147.321 46.9048C149.234 43.1274 151.903 40.1894 155.329 38.0909C158.755 35.9713 162.78 34.9116 167.403 34.9116C170.388 34.9116 173.204 35.3942 175.852 36.3596C178.522 37.3039 180.875 38.7729 182.914 40.7665C184.974 42.7601 186.592 45.2994 187.769 48.3842C188.946 51.4481 189.535 55.0996 189.535 59.3386V62.8327H149.843V55.152H178.595C178.574 52.9696 178.101 51.0284 177.176 49.3286C176.252 47.6078 174.959 46.2542 173.299 45.2679C171.659 44.2816 169.747 43.7884 167.561 43.7884C165.228 43.7884 163.179 44.355 161.413 45.4882C159.648 46.6005 158.271 48.0695 157.283 49.8952C156.317 51.6999 155.823 53.6831 155.802 55.8446V62.5494C155.802 65.3615 156.317 67.7748 157.347 69.7894C158.376 71.783 159.816 73.3149 161.666 74.3852C163.515 75.4345 165.68 75.9591 168.16 75.9591C169.82 75.9591 171.323 75.7283 172.668 75.2666C174.013 74.7839 175.18 74.0809 176.168 73.1576C177.155 72.2342 177.902 71.0905 178.406 69.7264L189.062 70.9226C188.389 73.7347 187.107 76.19 185.216 78.2885C183.345 80.3661 180.949 81.9819 178.028 83.1361C175.106 84.2694 171.764 84.836 168.002 84.836Z" fill="white"/>
<path d="M199.694 83.8916V19.4243H211.106V43.5366H211.579C212.168 42.3614 212.998 41.1128 214.07 39.7907C215.142 38.4476 216.592 37.3039 218.42 36.3596C220.249 35.3942 222.582 34.9116 225.419 34.9116C229.16 34.9116 232.534 35.8664 235.539 37.7761C238.566 39.6648 240.961 42.4663 242.727 46.1808C244.513 49.8742 245.407 54.4071 245.407 59.7793C245.407 65.0887 244.534 69.6005 242.79 73.3149C241.046 77.0294 238.671 79.8624 235.665 81.8141C232.66 83.7657 229.255 84.7415 225.451 84.7415C222.676 84.7415 220.375 84.2798 218.546 83.3565C216.718 82.4331 215.247 81.3209 214.133 80.0198C213.04 78.6977 212.189 77.4491 211.579 76.2739H210.917V83.8916H199.694ZM210.886 59.7164C210.886 62.8432 211.327 65.5818 212.21 67.9322C213.113 70.2826 214.406 72.1188 216.087 73.4409C217.79 74.742 219.85 75.3925 222.267 75.3925C224.789 75.3925 226.901 74.721 228.603 73.3779C230.306 72.0139 231.588 70.1566 232.449 67.8063C233.332 65.4349 233.774 62.7383 233.774 59.7164C233.774 56.7155 233.343 54.0503 232.481 51.7209C231.619 49.3915 230.337 47.5658 228.635 46.2437C226.932 44.9216 224.81 44.2606 222.267 44.2606C219.829 44.2606 217.758 44.9007 216.056 46.1808C214.354 47.4609 213.061 49.2551 212.178 51.5635C211.316 53.8719 210.886 56.5895 210.886 59.7164Z" fill="white"/>
<path d="M255.109 83.8916V35.5411H266.174V43.5995H266.679C267.562 40.8085 269.075 38.6575 271.219 37.1465C273.383 35.6146 275.853 34.8486 278.627 34.8486C279.258 34.8486 279.962 34.8801 280.74 34.943C281.538 34.985 282.2 35.0585 282.726 35.1634V45.6456C282.242 45.4777 281.475 45.3308 280.424 45.2049C279.394 45.058 278.396 44.9846 277.429 44.9846C275.349 44.9846 273.478 45.4358 271.818 46.3381C270.178 47.2195 268.886 48.4472 267.94 50.0211C266.994 51.595 266.521 53.4102 266.521 55.4668V83.8916H255.109Z" fill="white"/>
<path d="M303.375 84.8674C300.307 84.8674 297.543 84.3218 295.084 83.2306C292.646 82.1183 290.712 80.4815 289.283 78.32C287.875 76.1585 287.171 73.4933 287.171 70.3245C287.171 67.5964 287.675 65.3405 288.684 63.5567C289.693 61.7729 291.07 60.3459 292.814 59.2757C294.558 58.2054 296.524 57.3975 298.709 56.8519C300.916 56.2853 303.197 55.876 305.551 55.6242C308.388 55.3304 310.689 55.0681 312.455 54.8373C314.22 54.5854 315.502 54.2077 316.301 53.704C317.121 53.1794 317.53 52.3715 317.53 51.2802V51.0914C317.53 48.72 316.826 46.8838 315.418 45.5827C314.01 44.2816 311.982 43.631 309.334 43.631C306.538 43.631 304.321 44.2396 302.682 45.4568C301.063 46.6739 299.97 48.1114 299.403 49.7693L288.747 48.2583C289.588 45.3204 290.975 42.8651 292.909 40.8924C294.842 38.8988 297.207 37.4088 300.002 36.4225C302.797 35.4152 305.887 34.9116 309.271 34.9116C311.603 34.9116 313.926 35.1844 316.238 35.73C318.55 36.2756 320.662 37.178 322.575 38.4371C324.487 39.6753 326.021 41.3646 327.177 43.5051C328.354 45.6456 328.943 48.3213 328.943 51.532V83.8916H317.972V77.2497H317.593C316.9 78.5928 315.923 79.8519 314.662 81.0271C313.421 82.1813 311.856 83.1152 309.964 83.8287C308.094 84.5212 305.897 84.8674 303.375 84.8674ZM306.339 76.4942C308.63 76.4942 310.616 76.0431 312.297 75.1407C313.978 74.2173 315.271 73.0002 316.175 71.4892C317.1 69.9783 317.562 68.3309 317.562 66.5471V60.8496C317.205 61.1434 316.595 61.4162 315.733 61.668C314.893 61.9198 313.947 62.1402 312.896 62.3291C311.845 62.5179 310.805 62.6858 309.775 62.8327C308.745 62.9796 307.852 63.1055 307.095 63.2105C305.393 63.4413 303.869 63.819 302.524 64.3437C301.179 64.8683 300.117 65.6028 299.34 66.5471C298.562 67.4705 298.173 68.6667 298.173 70.1357C298.173 72.2342 298.941 73.8186 300.475 74.8889C302.009 75.9591 303.964 76.4942 306.339 76.4942Z" fill="white"/>
<path d="M440.703 19.4243V83.8916H429.007V19.4243H440.703Z" fill="white"/>
<path d="M464.276 55.5613V83.8916H452.864V35.5411H463.772V43.7569H464.339C465.453 41.0498 467.229 38.8988 469.667 37.3039C472.126 35.709 475.163 34.9116 478.778 34.9116C482.12 34.9116 485.031 35.6251 487.511 37.0521C490.012 38.4791 491.946 40.5462 493.312 43.2533C494.699 45.9604 495.382 49.2446 495.361 53.106V83.8916H483.949V54.8687C483.949 51.637 483.108 49.1082 481.426 47.2825C479.766 45.4568 477.465 44.5439 474.522 44.5439C472.526 44.5439 470.75 44.9846 469.194 45.866C467.66 46.7264 466.452 47.975 465.569 49.6119C464.707 51.2487 464.276 53.2319 464.276 55.5613Z" fill="white"/>
<path d="M531.143 35.5411V44.355H503.306V35.5411H531.143ZM510.178 23.9572H521.591V69.3487C521.591 70.8806 521.822 72.0558 522.284 72.8743C522.768 73.6717 523.398 74.2173 524.176 74.5111C524.953 74.8049 525.815 74.9518 526.761 74.9518C527.476 74.9518 528.127 74.8993 528.716 74.7944C529.325 74.6895 529.787 74.5951 530.103 74.5111L532.026 83.4194C531.416 83.6293 530.544 83.8601 529.409 84.112C528.295 84.3638 526.929 84.5107 525.311 84.5527C522.452 84.6366 519.878 84.2064 517.587 83.2621C515.296 82.2967 513.478 80.8068 512.133 78.7922C510.809 76.7775 510.157 74.2593 510.178 71.2374V23.9572Z" fill="white"/>
<path d="M561.605 84.836C556.75 84.836 552.557 83.8287 549.026 81.8141C545.516 79.7785 542.816 76.9035 540.924 73.189C539.032 69.4536 538.087 65.0572 538.087 59.9997C538.087 55.0261 539.032 50.6612 540.924 46.9048C542.837 43.1274 545.506 40.1894 548.932 38.0909C552.357 35.9713 556.382 34.9116 561.006 34.9116C563.991 34.9116 566.807 35.3942 569.455 36.3596C572.124 37.3039 574.478 38.7729 576.517 40.7665C578.577 42.7601 580.195 45.2994 581.372 48.3842C582.549 51.4481 583.137 55.0996 583.137 59.3386V62.8327H543.446V55.152H572.198C572.177 52.9696 571.704 51.0284 570.779 49.3286C569.854 47.6078 568.562 46.2542 566.901 45.2679C565.262 44.2816 563.349 43.7884 561.164 43.7884C558.831 43.7884 556.782 44.355 555.016 45.4882C553.251 46.6005 551.874 48.0695 550.886 49.8952C549.919 51.6999 549.425 53.6831 549.404 55.8446V62.5494C549.404 65.3615 549.919 67.7748 550.949 69.7894C551.979 71.783 553.419 73.3149 555.268 74.3852C557.118 75.4345 559.283 75.9591 561.763 75.9591C563.423 75.9591 564.926 75.7283 566.271 75.2666C567.616 74.7839 568.782 74.0809 569.77 73.1576C570.758 72.2342 571.504 71.0905 572.009 69.7264L582.664 70.9226C581.992 73.7347 580.71 76.19 578.818 78.2885C576.948 80.3661 574.552 81.9819 571.63 83.1361C568.709 84.2694 565.367 84.836 561.605 84.836Z" fill="white"/>
<path d="M613.852 103.03C609.753 103.03 606.233 102.474 603.29 101.362C600.348 100.271 597.984 98.8018 596.197 96.9551C594.411 95.1083 593.171 93.0623 592.477 90.8168L602.754 88.33C603.217 89.2744 603.889 90.2082 604.772 91.1316C605.655 92.0759 606.842 92.8524 608.335 93.461C609.848 94.0905 611.75 94.4053 614.041 94.4053C617.277 94.4053 619.957 93.6184 622.08 92.0445C624.203 90.4915 625.264 87.9313 625.264 84.3638V75.2036H624.697C624.108 76.3788 623.246 77.5855 622.111 78.8236C620.998 80.0618 619.516 81.1005 617.666 81.94C615.838 82.7794 613.536 83.1991 610.762 83.1991C607.042 83.1991 603.669 82.3282 600.642 80.5864C597.637 78.8236 595.241 76.2004 593.454 72.7169C591.689 69.2123 590.806 64.8263 590.806 59.559C590.806 54.2497 591.689 49.7693 593.454 46.1178C595.241 42.4454 597.647 39.6648 600.674 37.7761C603.7 35.8664 607.073 34.9116 610.794 34.9116C613.631 34.9116 615.964 35.3942 617.792 36.3596C619.642 37.3039 621.113 38.4476 622.206 39.7907C623.299 41.1128 624.129 42.3614 624.697 43.5366H625.327V35.5411H636.582V84.6786C636.582 88.8127 635.594 92.2333 633.618 94.9405C631.643 97.6476 628.942 99.6727 625.516 101.016C622.09 102.359 618.202 103.03 613.852 103.03ZM613.946 74.2593C616.363 74.2593 618.423 73.6717 620.125 72.4965C621.828 71.3213 623.12 69.632 624.003 67.4285C624.886 65.2251 625.327 62.5809 625.327 59.496C625.327 56.4531 624.886 53.788 624.003 51.5006C623.141 49.2132 621.859 47.4399 620.157 46.1808C618.475 44.9007 616.405 44.2606 613.946 44.2606C611.403 44.2606 609.28 44.9216 607.578 46.2437C605.875 47.5658 604.593 49.381 603.732 51.6894C602.87 53.9769 602.439 56.5791 602.439 59.496C602.439 62.455 602.87 65.0467 603.732 67.2711C604.614 69.4746 605.907 71.1954 607.609 72.4336C609.333 73.6507 611.445 74.2593 613.946 74.2593Z" fill="white"/>
<path d="M648.278 83.8916V35.5411H659.344V43.5995H659.848C660.731 40.8085 662.244 38.6575 664.388 37.1465C666.553 35.6146 669.022 34.8486 671.797 34.8486C672.427 34.8486 673.131 34.8801 673.909 34.943C674.707 34.985 675.369 35.0585 675.895 35.1634V45.6456C675.411 45.4777 674.644 45.3308 673.594 45.2049C672.564 45.058 671.565 44.9846 670.599 44.9846C668.518 44.9846 666.647 45.4358 664.987 46.3381C663.348 47.2195 662.055 48.4472 661.109 50.0211C660.163 51.595 659.69 53.4102 659.69 55.4668V83.8916H648.278Z" fill="white"/>
<path d="M696.544 84.8674C693.476 84.8674 690.712 84.3218 688.253 83.2306C685.815 82.1183 683.881 80.4815 682.452 78.32C681.044 76.1585 680.34 73.4933 680.34 70.3245C680.34 67.5964 680.844 65.3405 681.853 63.5567C682.862 61.7729 684.239 60.3459 685.983 59.2757C687.728 58.2054 689.693 57.3975 691.879 56.8519C694.085 56.2853 696.366 55.876 698.72 55.6242C701.557 55.3304 703.859 55.0681 705.624 54.8373C707.389 54.5854 708.672 54.2077 709.47 53.704C710.29 53.1794 710.7 52.3715 710.7 51.2802V51.0914C710.7 48.72 709.996 46.8838 708.587 45.5827C707.179 44.2816 705.151 43.631 702.503 43.631C699.708 43.631 697.49 44.2396 695.851 45.4568C694.233 46.6739 693.14 48.1114 692.572 49.7693L681.916 48.2583C682.757 45.3204 684.144 42.8651 686.078 40.8924C688.011 38.8988 690.376 37.4088 693.171 36.4225C695.966 35.4152 699.056 34.9116 702.44 34.9116C704.773 34.9116 707.095 35.1844 709.407 35.73C711.719 36.2756 713.831 37.178 715.744 38.4371C717.656 39.6753 719.191 41.3646 720.347 43.5051C721.524 45.6456 722.112 48.3213 722.112 51.532V83.8916H711.141V77.2497H710.763C710.069 78.5928 709.092 79.8519 707.831 81.0271C706.591 82.1813 705.025 83.1152 703.133 83.8287C701.263 84.5212 699.067 84.8674 696.544 84.8674ZM699.508 76.4942C701.799 76.4942 703.785 76.0431 705.466 75.1407C707.148 74.2173 708.44 73.0002 709.344 71.4892C710.269 69.9783 710.731 68.3309 710.731 66.5471V60.8496C710.374 61.1434 709.764 61.4162 708.903 61.668C708.062 61.9198 707.116 62.1402 706.065 62.3291C705.014 62.5179 703.974 62.6858 702.944 62.8327C701.914 62.9796 701.021 63.1055 700.265 63.2105C698.562 63.4413 697.038 63.819 695.693 64.3437C694.348 64.8683 693.287 65.6028 692.509 66.5471C691.731 67.4705 691.343 68.6667 691.343 70.1357C691.343 72.2342 692.11 73.8186 693.644 74.8889C695.178 75.9591 697.133 76.4942 699.508 76.4942Z" fill="white"/>
<path d="M745 19.4243V83.8916H733.588V19.4243H745Z" fill="white"/>
<path d="M362.308 111.931C361.509 111.568 361.272 110.988 361.599 110.189L363.617 105.072C364.053 103.983 364.689 103.729 365.525 104.309C366.179 104.781 366.943 105.144 367.815 105.398C368.688 105.689 369.851 105.834 371.305 105.834C373.377 105.834 375.012 104.926 376.212 103.112C377.448 101.297 378.066 97.9943 378.066 93.2034C378.066 86.0898 376.848 76.1633 374.413 63.4241C371.977 50.6848 370.759 39.6332 370.759 30.2693C370.759 22.6476 371.523 16.7679 373.049 12.6304C374.576 8.49284 376.848 5.35339 379.865 3.21203C382.918 1.07068 386.153 0 389.57 0C391.206 0 392.678 0.163324 393.987 0.489971C395.295 0.780325 396.44 1.17956 397.422 1.68768C398.149 2.05062 398.385 2.63133 398.131 3.4298L396.386 8.7106C396.022 9.83572 395.386 10.0898 394.477 9.47278C393.823 9.00096 393.114 8.67431 392.351 8.49284C391.588 8.27507 390.479 8.16619 389.025 8.16619C387.098 8.16619 385.336 9.09169 383.736 10.9427C382.137 12.7937 381.337 15.3706 381.337 18.6734C381.337 26.6581 382.609 37.0745 385.154 49.9226C387.698 62.7708 388.97 72.5158 388.97 79.1576C388.97 86.1261 388.516 92.2961 387.607 97.6676C386.735 103.039 384.918 107.104 382.155 109.862C379.392 112.621 375.776 114 371.305 114C369.669 114 368.233 113.873 366.997 113.619C365.798 113.401 364.235 112.839 362.308 111.931Z" fill="white"/>
</svg>
