<svg width="3239" height="1608" viewBox="0 0 3239 1608" fill="none" xmlns="http://www.w3.org/2000/svg">
<g clip-path="url(#clip0_488_2)">
<path d="M1286.9 687.3C1284.7 680.3 1283.1 673.2 1281.9 666C1281.3 662.7 1280.7 659.3 1280 656C1278.4 648.8 1276.7 641.7 1274.8 634.6C1306.3 587 1456.7 338.5 1285.5 179C1095.5 2.00002 873.5 234 873.5 234L874.2 235C774.4 204.7 666.2 201.1 561 234C559.7 232.6 338.5 2.50002 149 179C-40.5 355.5 164.1 641.1 165.2 642.6C163 649.3 161.3 656.2 160.1 663.1C139.6 785.4 0 823.1 0 1036C0 1248.9 146 1424 444 1424H566.3C566.8 1424.8 617.2 1496.1 720.6 1496.1C816.6 1496 879.9 1424.7 880.5 1424H997.2C1295.2 1424 1441.2 1253 1441.2 1036C1441.2 837.8 1320.1 791.4 1286.9 687.3Z" fill="white"/>
<path d="M3223.3 377C3223.3 377 3248.5 143.7 3056.9 93.6V0H2908.6V91.2C2706.5 135.9 2732.6 377 2732.6 377V417C2732.6 417 2706.5 658.1 2908.7 702.8V903.1C2695.7 941.9 2722.6 1190.9 2722.6 1190.9V1230.9C2722.6 1230.9 2696.5 1472 2898.6 1516.7V1607.9H3047V1514.3C3238.6 1464.2 3213.4 1230.9 3213.4 1230.9C3221.8 1230.9 3228.6 1224.1 3228.6 1215.7V1206C3228.6 1197.6 3221.8 1190.8 3213.4 1190.8C3213.4 1190.8 3238.4 959.5 3049.5 908V702.8H3047.3C3249.4 658.1 3223.4 417 3223.4 417C3231.8 417 3238.6 410.2 3238.6 401.8V392.1C3238.5 383.8 3231.7 377 3223.3 377ZM3102.4 1190.8H3088.8C3080.4 1190.8 3073.6 1197.6 3073.6 1206V1215.7C3073.6 1224.1 3080.4 1230.9 3088.8 1230.9H3102.4C3102.4 1375.6 3054.3 1400 3038.2 1404.1C3035.5 1404.8 3033 1402.8 3033 1400.1V1354C3033 1328.5 3016.8 1314.5 3000.5 1306.9C2980 1297.3 2956 1297.3 2935.5 1306.9C2919.3 1314.5 2903 1328.5 2903 1354V1400.1C2903 1402.8 2900.5 1404.8 2897.9 1404.2C2881.8 1400.2 2833.6 1376 2833.6 1231V1191C2833.6 1046.3 2881.7 1021.9 2897.8 1017.8C2900.5 1017.1 2903 1019.1 2903 1021.8V1067.9C2903 1093.4 2919.2 1107.4 2935.5 1115C2956 1124.6 2980 1124.6 3000.5 1115C3016.7 1107.4 3033 1093.4 3033 1067.9V1021.8C3033 1019.1 3035.5 1017.1 3038.1 1017.7C3054.2 1021.7 3102.4 1045.9 3102.4 1190.8ZM3098.9 417H3112.5C3112.5 562 3064.3 586.2 3048.2 590.2C3045.6 590.9 3043.1 588.8 3043.1 586.1V540C3043.1 514.5 3026.9 500.5 3010.6 492.9C2990.1 483.3 2966.1 483.3 2945.6 492.9C2929.4 500.5 2913.1 514.5 2913.1 540V586.1C2913.1 588.8 2910.5 590.8 2907.9 590.1C2891.7 586 2843.7 561.6 2843.7 416.9V376.9C2843.7 231.9 2891.9 207.7 2908 203.7C2910.6 203 2913.1 205.1 2913.1 207.8V254C2913.1 279.5 2929.3 293.5 2945.6 301.1C2966.1 310.7 2990.1 310.7 3010.6 301.1C3026.8 293.5 3043.1 279.5 3043.1 254V207.9C3043.1 205.2 3045.7 203.2 3048.3 203.9C3064.5 208 3112.5 232.3 3112.5 377.1H3098.9C3090.5 377.1 3083.7 383.9 3083.7 392.3V402C3083.7 410.2 3090.5 417 3098.9 417Z" fill="white"/>
<path d="M2490.3 789C2490.3 789 2516.5 546.5 2312.5 502.9V285C2511.1 238.5 2485.3 -9.76548e-05 2485.3 -9.76548e-05C2485.3 -9.76548e-05 2374 -9.76548e-05 2374.4 -9.76548e-05C2374.4 145 2326.2 169.2 2310.1 173.2C2307.5 173.9 2305 171.8 2305 169.1V123C2305 97.4999 2288.8 83.4999 2272.5 75.8999C2252 66.2999 2228 66.2999 2207.5 75.8999C2191.3 83.4999 2175 97.4999 2175 123V169.1C2175 171.8 2172.4 173.8 2169.8 173.1C2153.6 169 2105.6 144.7 2105.6 -0.100098C2106.1 -0.100098 1994.7 -0.100098 1994.7 -0.100098C1994.7 -0.100098 1968 247.4 2178.9 287.3V502.4C1973.3 545.4 1999.6 789 1999.6 789V829C1999.6 829 1973.3 1072.6 2178.8 1115.4V1320.5C1967.9 1360.4 1994.6 1607.9 1994.6 1607.9C1994.6 1607.9 2105.9 1607.9 2105.5 1607.9C2105.5 1462.9 2153.7 1438.7 2169.8 1434.7C2172.4 1434 2174.9 1436.1 2174.9 1438.8V1484.9C2174.9 1510.4 2191.1 1524.4 2207.4 1532C2227.9 1541.6 2251.9 1541.6 2272.4 1532C2288.6 1524.4 2304.9 1510.4 2304.9 1484.9V1438.8C2304.9 1436.1 2307.5 1434.1 2310.1 1434.8C2326.3 1438.9 2374.3 1463.2 2374.3 1608C2373.8 1608 2485.2 1608 2485.2 1608C2485.2 1608 2511 1369.5 2312.4 1323V1115.2C2516.4 1071.5 2490.2 829.1 2490.2 829.1C2498.6 829.1 2505.4 822.3 2505.4 813.9V804.2C2505.5 795.8 2498.7 789 2490.3 789ZM2365.9 829H2379.5C2379.5 974 2331.3 998.2 2315.2 1002.2C2312.6 1002.9 2310.1 1000.8 2310.1 998.1V952C2310.1 926.5 2293.9 912.5 2277.6 904.9C2257.1 895.3 2233.1 895.3 2212.6 904.9C2196.4 912.5 2180.1 926.5 2180.1 952V998.1C2180.1 1000.8 2177.5 1002.8 2174.9 1002.1C2158.7 998 2110.7 973.6 2110.7 828.9V788.9C2110.7 643.9 2158.9 619.7 2175 615.7C2177.6 615 2180.1 617.1 2180.1 619.8V666C2180.1 691.5 2196.3 705.5 2212.6 713.1C2233.1 722.7 2257.1 722.7 2277.6 713.1C2293.8 705.5 2310.1 691.5 2310.1 666V619.9C2310.1 617.2 2312.7 615.2 2315.3 615.9C2331.5 620 2379.5 644.4 2379.5 789.1H2365.9C2357.5 789.1 2350.7 795.9 2350.7 804.3V814C2350.7 822.2 2357.5 829 2365.9 829Z" fill="white"/>
</g>
<defs>
<clipPath id="clip0_488_2">
<rect width="3238.5" height="1608" fill="white"/>
</clipPath>
</defs>
</svg>
